<?xml version="1.0" encoding="UTF-8"?>
<svg id="Layer_1" data-name="Layer 1" xmlns="http://www.w3.org/2000/svg" viewBox="0 0 360 124.04">
  <defs>
    <style>
      .cls-1 {
        fill: #e12727;
      }
    </style>
  </defs>
  <g id="CMYK_BUBBA_LOGO_RED" data-name="CMYK BUBBA LOGO RED">
    <g>
      <g id="BUBBA_TM" data-name="BUBBA TM">
        <g id="BUBBA_TM-2" data-name="BUBBA TM">
          <g>
            <path class="cls-1" d="M51.36,7.52H8.84v108.77h42.11c10.21,0,15.31-5.18,15.31-15.53v-31.06c0-3.88-1.91-6.47-5.74-7.77,3.83-1.29,5.74-3.88,5.74-7.77v-31.06c0-10.21-4.97-15.4-14.89-15.59ZM42.85,94.96c0,.07-.02.14-.02.22-.12,1.62-1.46,2.91-3.11,2.91h-7.73c-1.72,0-3.13-1.41-3.13-3.13v-20.26c0-1.72,1.41-3.13,3.13-3.13h7.73c.65,0,1.26.21,1.77.55.82.57,1.36,1.51,1.36,2.58v20.26ZM42.85,50.48v2.71c0,1.72-1.41,3.13-3.13,3.13h-7.73c-1.72,0-3.13-1.41-3.13-3.13v-20.26c0-1.66,1.31-3.01,2.94-3.11.06,0,.12-.02.19-.02h7.73c1.72,0,3.13,1.41,3.13,3.13v17.54Z"/>
            <path class="cls-1" d="M181.51,7.52h-42.52v108.77h42.11c10.21,0,15.31-5.18,15.31-15.53v-31.06c0-3.88-1.91-6.47-5.74-7.77,3.83-1.29,5.74-3.88,5.74-7.77v-31.06c0-10.21-4.97-15.4-14.89-15.59ZM174.42,94.96c0,1.72-1.41,3.13-3.13,3.13h-7.73c-1.72,0-3.13-1.41-3.13-3.13v-20.26c0-1.13.62-2.12,1.53-2.67.22-.13.46-.24.71-.31.28-.09.58-.15.89-.15h7.73c1.72,0,3.13,1.41,3.13,3.13v20.26ZM174.42,53.2c0,1.72-1.41,3.13-3.13,3.13h-7.73c-1.72,0-3.13-1.41-3.13-3.13v-20.26c0-1.13.62-2.12,1.53-2.67.47-.28,1.02-.46,1.6-.46h7.73c.83,0,1.57.33,2.13.86.61.57,1,1.38,1,2.28v20.26Z"/>
            <path class="cls-1" d="M246.58,7.52h-42.52v108.77h42.11c10.21,0,15.31-5.18,15.31-15.53v-31.06c0-3.88-1.91-6.47-5.74-7.77,3.83-1.29,5.74-3.88,5.74-7.77v-31.06c0-10.21-4.97-15.4-14.89-15.59ZM240.2,95.02c0,1.72-1.41,3.13-3.13,3.13h-7.73c-1.72,0-3.13-1.41-3.13-3.13v-20.26c0-.8.32-1.53.82-2.09.42-.46.97-.8,1.59-.95.23-.06.47-.09.72-.09h7.73c1.72,0,3.13,1.41,3.13,3.13v20.26ZM240.2,53.25c0,1.72-1.41,3.13-3.13,3.13h-7.73c-1.72,0-3.13-1.41-3.13-3.13v-20.26c0-.8.32-1.53.82-2.09.57-.64,1.4-1.04,2.31-1.04h7.73c.5,0,.97.13,1.39.34,1.02.52,1.74,1.57,1.74,2.79v20.26Z"/>
            <path class="cls-1" d="M113.7,7.52h-4.36v87.44c0,1.72-1.41,3.13-3.13,3.13h-7.73c-.71,0-1.35-.25-1.88-.64-.76-.57-1.25-1.47-1.25-2.49V7.58h-21.44v93.18c0,10.35,5.1,15.53,15.31,15.53h26.79c10.21,0,15.31-5.18,15.31-15.53V7.58h-17.63v-.06Z"/>
            <path class="cls-1" d="M301.66,112.36c-3.29-3.23-5.93-7.05-7.69-11.29-1.9-4.56-2.83-9.58-2.51-14.79.38-6.13,2.1-12.2,3.35-18.27,1.26-6.12,2.71-12.21,4.07-18.31.23,1.84.46,3.66.74,5.47.77,5.04,1.88,9.94,4.34,14.56.55,1.04,1.19,1.98,1.89,2.85,3.01,3.74,7.18,6.07,11.19,8.61.97.62,1.93,1.24,2.86,1.91-.15.29-.3.58-.45.87-.81-.18-1.61-.37-2.41-.56-2.16-.52-4.31-1.04-6.5-1.4-1.31-.22-2.49-.25-3.54-.13-4.18.47-6.17,3.54-5.33,8.78.36,2.23.92,4.31,1.66,6.23,2.44,6.35,6.99,11,13.72,13.61.72.28,1.46.55,2.23.78,5.13,1.55,9.95,1.64,14.35.34l-12.82-104.03h-38.28l-13.4,108.71h16.72s20.6,0,20.6,0c0,0,0,0,0,0-1.72-1.18-3.32-2.49-4.79-3.93Z"/>
          </g>
        </g>
      </g>
      <path class="cls-1" d="M351.16,18.73c0,6.33-4.97,11.29-11.43,11.29s-11.5-4.97-11.5-11.29,5.1-11.15,11.5-11.15,11.43,4.96,11.43,11.15ZM331.1,18.73c0,4.97,3.67,8.91,8.71,8.91s8.5-3.95,8.5-8.84-3.61-8.98-8.57-8.98-8.64,4.01-8.64,8.91ZM337.97,24.58h-2.58v-11.15c1.02-.2,2.45-.34,4.28-.34,2.11,0,3.06.34,3.88.82.61.48,1.09,1.36,1.09,2.45,0,1.22-.95,2.18-2.31,2.58v.14c1.09.41,1.7,1.22,2.04,2.72.34,1.7.54,2.38.82,2.79h-2.79c-.34-.41-.54-1.43-.88-2.72-.2-1.22-.88-1.77-2.31-1.77h-1.22v4.49ZM338.03,18.26h1.22c1.43,0,2.58-.48,2.58-1.63,0-1.02-.75-1.7-2.38-1.7-.68,0-1.16.07-1.43.14v3.2Z"/>
    </g>
  </g>
</svg>